<svg version="1.1" id="Layer_1" xmlns="http://www.w3.org/2000/svg" xmlns:xlink="http://www.w3.org/1999/xlink" x="0px" y="0px"
	 width="100%" viewBox="0 0 1024 1024" enable-background="new 0 0 1024 1024" xml:space="preserve">
<path fill="#000000" opacity="1.000000" stroke="none" 
	d="
M488.201355,843.773499 
	C486.300446,839.721313 481.942230,837.075684 483.426025,831.943909 
	C483.854156,830.463135 482.295715,829.599731 480.913788,829.374756 
	C477.587860,828.833313 475.860199,826.513062 474.199158,823.908264 
	C470.362854,817.892212 466.500366,811.887512 462.452698,806.013123 
	C458.577271,800.388733 460.037354,794.130005 459.814331,788.027893 
	C459.589447,781.875366 461.406006,775.434509 457.944153,769.692993 
	C456.472412,767.252075 456.949829,764.482056 456.168243,762.241821 
	C453.426208,754.382202 455.077911,745.451782 450.118591,738.227600 
	C443.073303,727.964966 436.090057,717.658630 428.935974,707.472351 
	C426.719666,704.316772 424.559387,701.834656 426.210419,697.208252 
	C427.369568,693.960144 425.792572,689.833557 425.599579,686.087341 
	C425.362732,681.489319 426.736053,677.984070 429.084656,674.518494 
	C431.670807,670.702393 432.834534,666.953979 432.436829,661.985413 
	C431.808990,654.142090 433.267334,646.339905 439.402527,640.327942 
	C440.498047,639.254333 441.626526,638.394653 443.000427,637.732300 
	C448.778351,634.946838 451.490875,628.849304 450.202179,622.450623 
	C448.838348,615.678772 444.563080,610.450989 441.148926,604.782227 
	C439.782440,602.513428 439.430878,600.643799 440.804352,598.333313 
	C443.898926,593.127563 443.040436,588.113892 439.729980,583.343994 
	C436.869019,579.221802 434.288300,575.312500 435.339081,569.626526 
	C435.966309,566.232483 432.315826,563.520386 430.977509,560.309753 
	C430.408264,558.944153 428.959503,557.351990 429.293518,556.303345 
	C430.946533,551.113770 427.886688,547.861633 425.255035,544.171814 
	C423.377289,541.538940 422.126984,538.545044 418.030121,539.407898 
	C417.518280,539.515686 416.607971,539.074585 416.304565,538.611267 
	C414.344269,535.618042 411.821777,533.903320 408.071716,533.982849 
	C406.626526,534.013550 405.372742,532.617371 405.837616,531.231628 
	C407.954926,524.920776 403.185303,520.887451 400.869110,516.168884 
	C399.367889,513.110474 399.259949,510.788116 400.025299,507.393890 
	C401.479340,500.945557 404.218353,494.452972 402.260803,487.548187 
	C401.742462,485.719971 403.162567,484.448639 403.768280,482.937958 
	C406.063507,477.213715 408.212402,471.755890 405.334564,465.240326 
	C400.957550,455.330383 391.576752,453.728027 380.781372,457.936188 
	C375.111969,460.146179 369.239044,459.761414 363.645416,458.795197 
	C360.584717,458.266541 358.652100,454.243927 358.225159,451.073669 
	C357.729553,447.393829 356.041016,445.777740 352.943298,444.091003 
	C343.654022,439.032867 334.407166,440.041229 325.000916,443.246613 
	C321.839264,444.324066 318.794495,445.085999 315.277924,444.683258 
	C312.096802,444.318939 308.641388,444.761047 306.028381,447.426544 
	C302.797089,450.722748 298.392670,448.590668 294.624084,449.598145 
	C293.262054,449.962280 291.402893,449.342194 290.418213,450.566589 
	C285.473022,456.715607 278.704590,453.351288 272.739929,454.097748 
	C272.152069,454.171295 271.270325,453.914307 270.909882,453.486511 
	C264.972595,446.438324 256.968567,450.576630 249.933502,449.470947 
	C243.878052,448.519287 240.864410,451.949646 238.220978,456.448608 
	C235.434433,461.191162 230.713669,458.865417 226.889023,459.055420 
	C224.370377,459.180542 222.402359,458.995819 221.047806,461.506714 
	C219.286377,464.771759 217.296295,465.164856 215.301743,461.629547 
	C212.265930,456.248566 207.123962,459.658417 203.046951,459.019348 
	C200.608047,458.637054 199.254761,458.198578 197.964020,456.155396 
	C195.576019,452.375305 193.015335,448.676941 190.220947,445.189392 
	C187.893692,442.284851 185.829422,438.782623 181.081696,439.279541 
	C179.139359,439.482819 178.639694,437.451691 177.646317,436.125244 
	C175.113754,432.743500 173.019119,428.628723 167.600479,429.216614 
	C165.709671,429.421783 164.886490,427.623413 163.883652,426.276184 
	C156.438339,416.274109 150.104294,405.490631 142.237961,395.775116 
	C139.207169,392.031830 135.915909,389.788910 130.858994,389.884430 
	C125.233238,389.990662 120.732880,385.483246 120.013550,379.836151 
	C119.867416,378.688965 120.079727,376.850220 119.466377,376.505585 
	C110.611664,371.529999 115.068726,363.593018 114.770973,356.677094 
	C114.652290,353.920135 114.034538,351.211609 111.715668,349.063812 
	C109.512383,347.023041 110.207634,344.952454 113.094917,344.413544 
	C115.254738,344.010468 117.673325,345.179413 118.860275,342.021454 
	C120.327621,338.117432 121.355354,334.029633 119.115784,330.465454 
	C116.502068,326.305939 117.067612,324.475525 121.911224,323.843567 
	C124.492783,323.506744 125.677666,321.421082 125.801552,319.243073 
	C126.197868,312.275848 128.951111,305.100281 124.314507,298.451385 
	C123.784409,297.691223 123.530975,296.526337 123.609680,295.587738 
	C124.127914,289.406952 121.848907,284.202789 118.168983,279.476349 
	C116.607193,277.470367 117.414703,275.826691 118.618523,274.048431 
	C124.845627,264.849548 131.012833,255.610138 137.234314,246.407440 
	C137.684616,245.741379 138.326660,244.874405 139.004486,244.742416 
	C148.762680,242.842239 152.150177,234.081558 156.914261,227.312790 
	C161.592102,220.666565 166.187836,213.927841 170.835297,207.238739 
	C172.126938,205.379684 173.635468,204.885193 175.828659,204.692932 
	C180.982834,204.241150 185.890747,203.159271 189.295593,198.445709 
	C191.412933,195.514526 194.089340,193.232742 198.082870,192.374451 
	C201.709518,191.595016 203.824890,188.013092 204.683517,184.731384 
	C207.856537,172.604126 213.940811,162.193741 221.754990,152.546371 
	C223.409286,150.503967 224.807373,149.517303 227.361847,149.298279 
	C231.850632,148.913376 235.023758,148.382706 236.360825,141.971771 
	C237.373795,137.114792 240.311478,129.700241 248.340210,129.317322 
	C249.212402,129.275726 250.125870,128.485809 250.881424,127.872162 
	C256.183533,123.565948 260.066986,124.303284 266.522064,126.527985 
	C274.767212,129.369614 283.548950,130.049225 292.229370,126.423584 
	C297.972900,124.024620 303.096832,120.030235 309.554413,119.377747 
	C310.033112,119.329369 310.727051,119.184746 310.918579,118.852768 
	C313.954346,113.590347 320.880432,114.751289 324.585175,110.487534 
	C326.357117,108.448212 329.036804,109.864609 331.293335,109.705101 
	C353.223206,108.154945 375.159149,108.631927 397.113525,109.235756 
	C404.733490,109.445343 412.351624,108.698715 420.009613,109.667046 
	C424.688477,110.258667 425.348602,114.134125 427.153198,116.973969 
	C428.032928,118.358391 426.113739,119.413742 424.681976,120.087105 
	C420.935516,121.849030 420.088348,124.701996 422.198181,128.350845 
	C423.277985,130.218369 424.343842,132.118332 425.650299,133.824203 
	C427.240997,135.901169 427.715088,137.791550 426.207489,140.188919 
	C424.332489,143.170517 425.662903,146.132675 428.088287,147.610565 
	C431.407074,149.632797 434.257629,152.837433 438.612488,152.933762 
	C439.407562,152.951355 440.449585,153.150162 440.943787,153.674316 
	C445.964691,158.999802 452.582275,157.842239 458.773743,157.975220 
	C462.255981,158.050034 465.432861,158.852371 466.880127,161.844193 
	C470.834015,170.017944 479.086334,169.572266 485.919220,171.830597 
	C490.504211,173.345993 495.052795,172.798782 499.112671,169.570068 
	C500.315338,168.613617 502.203400,168.160721 503.793335,168.121323 
	C507.537689,168.028458 510.121002,166.435776 511.806702,163.158615 
	C513.208069,160.434296 515.415283,158.909561 518.532776,158.656265 
	C519.500610,158.577637 520.668884,158.353836 521.349121,157.750046 
	C528.815125,151.122757 537.845154,154.723770 546.180176,153.870178 
	C547.369446,153.748383 548.571838,154.185623 549.323608,155.143326 
	C553.324646,160.240265 559.648865,160.633469 564.845581,163.266830 
	C572.554016,167.172958 580.877869,166.722748 588.512756,169.129089 
	C596.308472,171.586105 603.046082,172.001221 610.676086,169.382355 
	C614.423401,168.096146 618.923096,168.924240 623.082153,168.929520 
	C636.728638,168.946854 650.383911,168.408569 664.009888,169.772614 
	C667.096863,170.081619 669.004761,170.724579 667.444580,174.324509 
	C667.121521,175.070007 666.633911,176.058594 666.873779,176.685959 
	C669.974854,184.795792 666.113281,193.156281 667.861755,201.426056 
	C668.510010,204.492203 665.366516,207.771164 663.309204,210.496399 
	C661.071960,213.459991 661.221619,216.054962 662.586548,219.288620 
	C666.037415,227.463837 670.456360,235.037445 675.780701,242.103333 
	C677.728394,244.688034 679.047729,247.409851 679.119751,250.774216 
	C679.197754,254.421585 681.051941,257.317932 684.539978,258.415863 
	C687.343872,259.298462 688.916321,261.042542 690.471558,263.323669 
	C695.541443,270.760071 699.922241,278.341187 699.168152,287.858795 
	C698.760681,293.001984 701.792358,296.270721 705.938293,298.618286 
	C707.411255,299.452332 709.082703,300.168549 709.856018,301.611542 
	C714.207886,309.732788 721.233582,316.400269 723.139771,325.842957 
	C723.703796,328.637146 725.913940,330.184540 727.994202,331.234680 
	C731.565552,333.037445 734.038147,335.884430 736.620178,338.669464 
	C738.470215,340.665009 740.398865,342.340210 743.083923,343.140533 
	C745.971375,344.001160 747.719971,346.277985 749.221008,348.739594 
	C751.538391,352.539978 754.834045,355.434143 758.623718,357.504974 
	C766.161438,361.623962 769.645264,368.234802 771.220886,376.244293 
	C772.422913,382.353851 775.723877,386.870575 782.028442,387.875366 
	C789.136536,389.008240 796.178650,390.280365 802.980469,385.211853 
	C807.148193,382.106232 813.043335,384.053284 818.149353,383.806000 
	C821.154175,383.660461 823.600220,383.230072 825.694824,380.864838 
	C828.548340,377.642639 832.579285,379.106110 836.093628,378.890198 
	C838.726196,378.728455 840.888916,378.538940 842.580139,376.133698 
	C843.792786,374.408966 851.731140,373.803680 853.267334,374.989014 
	C854.551880,375.980164 854.489380,377.362335 853.983337,378.617340 
	C853.053284,380.924225 854.435181,383.631958 853.903870,385.242126 
	C851.819031,391.561432 855.800659,398.868683 850.023010,404.645905 
	C846.807983,407.860657 844.827637,412.334869 842.423645,416.321564 
	C841.665710,417.578491 840.648621,419.251312 840.924133,420.467896 
	C842.945740,429.394440 836.514221,435.237122 832.628296,441.499481 
	C826.702576,451.049133 820.490112,460.503448 813.396301,469.371857 
	C808.936523,474.947388 802.390564,476.400787 797.308594,480.450623 
	C797.185486,480.548767 796.973083,480.532440 796.845032,480.627167 
	C788.180237,487.038940 778.147034,491.831451 772.596619,501.873505 
	C768.949219,508.472565 764.348633,515.438538 758.392700,518.990845 
	C744.939941,527.014587 739.357544,540.768982 730.572571,552.162109 
	C726.865051,556.970276 727.541199,562.536926 730.077576,567.822998 
	C731.454956,570.693542 732.924866,573.347473 736.675171,573.979675 
	C739.353577,574.431152 740.060791,576.316772 738.487305,578.848145 
	C736.997559,581.244873 735.406921,583.650879 734.399353,586.260803 
	C732.232666,591.872986 735.787964,604.029419 740.310486,608.217041 
	C744.177917,611.798035 747.559937,615.666016 744.722900,621.585327 
	C744.239746,622.593384 743.994202,623.916565 744.171326,625.007751 
	C745.491882,633.144409 744.607544,641.586487 746.084473,649.495972 
	C748.651794,663.244629 745.775574,674.299927 735.772949,684.041931 
	C732.498169,687.231384 729.428772,689.020325 724.856201,689.694946 
	C715.432861,691.085022 707.506042,695.467407 702.128235,703.795532 
	C700.020325,707.059753 697.249756,709.452698 693.045288,710.203247 
	C688.314636,711.047791 683.604980,720.992981 684.445007,727.242981 
	C685.193298,732.810120 687.594666,737.767212 690.337769,742.499939 
	C691.765381,744.963074 691.920349,746.540710 690.505432,749.212585 
	C687.847473,754.231934 685.589111,759.257263 684.916931,765.401062 
	C684.314697,770.906128 680.783875,776.929749 674.587097,779.491943 
	C672.410645,780.391846 670.536133,781.864746 668.465820,782.647522 
	C657.916626,786.636597 657.524902,795.311035 658.010010,804.406921 
	C658.136169,806.770813 657.399414,808.669617 656.098511,810.428833 
	C651.771240,816.280762 648.595642,822.444397 640.920959,826.043762 
	C634.830811,828.899963 629.881592,835.900574 630.642578,844.539917 
	C631.006042,848.666748 628.586609,852.810669 624.909668,853.277527 
	C619.718628,853.936584 617.360413,857.148865 614.936096,860.608643 
	C611.991821,864.810547 609.886047,869.464417 603.415222,869.418823 
	C600.695435,869.399597 599.705811,872.992493 598.279480,875.141907 
	C596.876465,877.256104 595.493347,878.764099 592.767944,878.667236 
	C591.815186,878.633362 590.334961,878.794189 589.961853,879.399780 
	C586.834717,884.475769 581.640198,883.189636 577.090881,883.730591 
	C574.210876,884.073059 571.692566,884.505859 569.692383,887.094788 
	C568.075623,889.187378 560.168457,888.968506 558.032471,887.242798 
	C551.825562,882.228088 539.909912,882.237305 535.415894,888.454224 
	C531.761719,893.509338 527.294556,893.512939 522.465027,893.374023 
	C519.487915,893.288452 517.385742,893.803772 515.676025,896.372559 
	C513.948792,898.967651 511.907928,899.194946 510.623810,895.932983 
	C509.481262,893.030762 507.384155,892.269653 504.677094,892.959290 
	C502.262695,893.574341 501.151581,892.554810 499.892181,890.608337 
	C496.115845,884.771729 492.168762,879.035339 488.047943,873.436829 
	C486.333618,871.107727 486.959778,869.577576 488.651276,867.802002 
	C496.318634,859.753235 496.574707,857.047180 490.710144,847.911072 
	C489.904327,846.655762 489.193207,845.339661 488.201355,843.773499 
z"/>
<path fill="#000000" opacity="1.000000" stroke="none" 
	d="
M774.182922,774.901123 
	C772.877563,773.413513 770.705872,772.095459 771.663513,770.558716 
	C776.246460,763.205139 768.924194,759.486145 766.700378,754.414062 
	C765.523865,751.730713 765.292664,750.550293 766.832397,747.994263 
	C771.369202,740.463257 776.884338,733.582458 781.017334,725.767822 
	C783.300415,721.450867 783.049438,717.886230 780.381775,714.218079 
	C779.476746,712.973511 778.247620,711.805603 778.955078,710.238770 
	C781.099365,705.489502 778.783936,701.911987 776.109131,698.391602 
	C775.226868,697.230469 774.766479,696.048035 775.671692,694.743408 
	C779.929932,688.606506 782.662292,681.470093 787.937561,676.003540 
	C788.621155,675.295044 789.397034,674.117981 790.139587,674.110657 
	C797.240540,674.040833 803.439087,671.394714 809.727417,668.386780 
	C812.509155,667.056152 814.712769,666.937378 813.010010,663.148499 
	C811.671997,660.171265 813.113098,658.897644 816.273926,658.885315 
	C821.413818,658.865295 821.974670,657.907288 819.853088,653.259521 
	C818.606323,650.528076 819.589355,648.510864 822.378357,649.078125 
	C826.032532,649.821472 827.549316,647.965393 829.198242,645.515381 
	C831.421570,642.211853 833.754089,638.981750 836.043457,635.722900 
	C837.528381,633.609253 839.198792,633.217712 840.790894,635.500305 
	C845.032593,641.581604 849.171997,647.734131 853.390808,653.831543 
	C854.316589,655.169678 854.892456,656.643372 853.964966,658.005920 
	C852.354736,660.371704 852.169922,662.467407 853.977539,664.825867 
	C854.872620,665.993713 854.330383,667.279297 853.482910,668.491333 
	C851.108459,671.887512 848.990479,675.470703 846.497009,678.772888 
	C845.148987,680.558167 845.192993,681.803711 846.356506,683.648438 
	C848.669678,687.315979 847.855164,688.800659 843.814270,688.947388 
	C838.068176,689.155945 837.879395,689.418396 840.477417,694.665649 
	C841.168762,696.061829 840.926575,697.061401 840.210388,698.346680 
	C838.042786,702.236572 833.301697,705.550110 837.324829,710.973755 
	C838.010925,711.898621 836.850586,713.072754 836.224792,714.079834 
	C834.208252,717.325134 832.333435,720.658447 830.391785,723.950623 
	C829.795227,724.962219 828.774902,726.267151 829.420105,727.157349 
	C832.493896,731.398560 829.224976,734.262390 827.405945,737.390991 
	C826.029480,739.758423 824.512573,741.854309 826.978027,744.526245 
	C828.159851,745.807190 827.172913,747.219666 826.385437,748.604187 
	C824.324036,752.228333 821.037659,755.644531 824.016602,760.391052 
	C824.665588,761.425049 823.742798,762.600159 823.068726,763.579529 
	C818.846375,769.714294 814.639587,775.859802 810.418945,781.995789 
	C810.139038,782.402649 809.771423,783.104980 809.472168,783.090698 
	C802.281250,782.747314 797.663025,790.232605 789.765991,788.957825 
	C784.753784,788.148743 781.089294,786.985291 778.728577,782.434509 
	C777.434326,779.939453 775.846313,777.596863 774.182922,774.901123 
z"/>
<path fill="#000000" opacity="1.000000" stroke="none" 
	d="
M645.616394,983.455322 
	C644.220520,982.849121 643.194763,982.226746 641.958069,982.729004 
	C641.341797,982.979309 640.670349,983.474121 640.095093,983.387146 
	C633.097717,982.328613 626.004028,984.906799 619.082092,982.894165 
	C617.316711,982.380859 615.974426,982.489990 614.355835,983.214111 
	C611.359436,984.554871 608.075684,985.095032 605.400391,982.808777 
	C602.236938,980.105469 600.086975,983.918701 597.071106,983.655579 
	C591.282532,983.150574 584.777283,981.606079 580.185852,987.792419 
	C578.767395,989.703552 576.697510,988.210938 576.086121,986.188904 
	C575.318237,983.649353 573.885620,983.178650 571.561157,983.892456 
	C569.359558,984.568481 567.260681,983.892700 565.287476,982.941711 
	C563.664246,982.159485 562.199036,982.248047 560.511719,982.883423 
	C554.067444,985.310242 551.693726,984.415955 548.269958,978.613342 
	C547.868591,977.933167 547.299072,977.352234 546.747009,976.648071 
	C546.134949,977.046509 545.399597,977.312134 545.408386,977.550476 
	C545.680786,984.978333 539.966187,983.314087 535.785828,983.831055 
	C535.133789,983.911621 534.196960,983.311768 533.700928,982.752380 
	C531.494019,980.263489 531.528931,968.002441 533.833191,965.575684 
	C536.028809,963.263306 539.100525,962.031616 540.967957,965.263367 
	C543.917603,970.367798 548.724548,968.032410 552.654846,969.074341 
	C553.332886,969.254150 554.450867,968.189392 554.978333,968.458557 
	C560.191284,971.117920 565.542053,968.392151 570.566528,968.978577 
	C576.397705,969.659241 582.116943,967.812561 587.810181,969.270630 
	C588.697632,969.497925 589.692627,969.112854 589.861877,968.275208 
	C590.882202,963.225220 595.137146,964.843018 598.235840,964.111023 
	C599.761902,963.750671 600.885742,964.467041 601.452942,965.826538 
	C602.392761,968.079163 603.172974,969.739685 606.444641,969.334839 
	C608.957581,969.023926 608.676270,971.575562 608.136780,973.452942 
	C607.449097,975.845886 607.778503,978.024414 610.514648,978.519165 
	C612.982971,978.965576 615.167480,978.793152 616.120117,975.313110 
	C617.853943,968.979004 621.572754,967.491516 627.880432,969.820923 
	C628.654053,970.106567 629.693359,970.790283 630.196960,970.520203 
	C636.643738,967.062622 643.534973,970.738586 650.034119,969.181091 
	C653.498108,968.350952 656.833252,969.748108 660.361450,969.121704 
	C663.076050,968.639648 664.618958,971.255066 664.954163,974.028015 
	C665.073547,975.015808 665.166382,976.032898 665.066589,977.015869 
	C664.828552,979.362122 666.076355,982.633606 662.980774,983.545959 
	C659.887878,984.457520 660.061951,980.697815 658.828674,978.986206 
	C656.591492,980.096680 657.682678,983.863403 654.708740,983.622009 
	C651.615967,983.370972 652.400024,980.010071 650.929443,978.118469 
	C648.269226,979.087952 650.391785,984.494934 645.616394,983.455322 
z"/>
<path fill="#000000" opacity="1.000000" stroke="none" 
	d="
M404.267822,968.532349 
	C404.616150,969.992493 405.236664,970.500000 406.485352,970.278870 
	C415.194122,968.736877 423.903503,968.282471 432.576813,970.520386 
	C434.016663,970.891968 435.180115,970.235168 436.378632,969.691162 
	C438.249237,968.842102 440.197235,968.251526 442.175018,969.028381 
	C448.054291,971.337524 452.742218,969.336304 456.942078,965.217590 
	C458.948730,963.249878 460.611847,964.269409 460.860809,966.440186 
	C461.447144,971.552673 461.886627,976.851685 460.634949,981.818176 
	C459.643829,985.750610 455.325317,984.514832 452.877411,983.932129 
	C448.918884,982.989746 445.351440,981.932922 441.442108,984.010254 
	C440.487244,984.517700 438.873657,983.873413 437.586975,983.631165 
	C436.952454,983.511719 436.396606,983.017944 435.764130,982.837036 
	C432.086700,981.784851 428.025116,978.359558 426.588074,975.041748 
	C425.853577,974.896118 424.909729,975.216064 425.002350,975.794678 
	C426.036407,982.254517 420.525909,984.123108 416.972839,987.291382 
	C414.136383,989.820740 408.117462,989.701172 406.030853,986.730713 
	C403.190155,982.686829 399.839935,982.907043 395.511566,983.443848 
	C389.909149,984.138611 384.181274,982.349976 378.426788,983.758606 
	C377.099304,984.083557 375.246918,982.264099 373.623962,981.425171 
	C370.691956,984.024353 364.127228,985.014954 361.417542,983.030945 
	C358.004883,980.532104 357.464752,977.077881 358.716766,973.219849 
	C359.254425,971.563232 360.216309,970.168030 361.906921,969.614258 
	C364.716156,968.694031 367.445435,968.068909 369.026276,964.927734 
	C369.900665,963.190186 371.743835,964.095276 372.373444,965.788940 
	C372.937805,967.307129 373.099243,968.975098 373.527313,970.996765 
	C377.514862,968.955933 381.402374,968.030396 385.400726,970.427124 
	C385.958221,970.761292 387.093079,970.550415 387.764313,970.207458 
	C391.478180,968.309937 395.080750,968.253662 398.181488,970.765869 
	C401.078125,969.308105 397.898041,964.439819 402.328979,964.685486 
	C404.270721,964.793274 404.291779,966.623596 404.267822,968.532349 
M413.519318,975.407593 
	C412.534393,973.559692 411.230072,973.672424 410.106781,975.109314 
	C409.117249,976.375122 409.659912,977.850525 410.975403,978.353394 
	C412.880127,979.081299 413.549652,977.718384 413.519318,975.407593 
z"/>
<path fill="#000000" opacity="1.000000" stroke="none" 
	d="
M499.156189,966.937744 
	C504.199951,966.227966 508.046295,964.390869 510.245544,959.892456 
	C511.586426,957.149719 513.606506,957.151123 515.218994,959.480652 
	C518.152588,963.718811 522.224854,964.642456 527.234558,963.952881 
	C526.860840,968.227844 526.671509,972.275818 526.113770,976.272339 
	C525.493286,980.718201 521.441467,984.498840 516.494507,985.088928 
	C511.351471,985.702393 505.924530,986.341187 502.813080,980.694092 
	C500.905212,977.231567 499.419373,973.538818 497.665405,969.988220 
	C496.928131,968.495789 496.962952,967.458923 499.156189,966.937744 
z"/>
<path fill="#000000" opacity="1.000000" stroke="none" 
	d="
M473.527100,967.572754 
	C477.813751,969.968079 483.437988,967.573669 486.183502,972.322388 
	C486.821808,972.280640 487.174805,972.335815 487.465088,972.225708 
	C489.157562,971.583801 489.828918,968.129333 492.250061,969.918518 
	C494.435822,971.533691 492.966278,973.910889 492.233337,975.879150 
	C491.071228,978.999817 489.742035,982.057800 488.521179,985.157166 
	C487.733826,987.155945 486.438293,988.570374 484.263763,988.958557 
	C482.879791,989.205688 481.551819,988.857056 480.567169,987.866150 
	C479.343689,986.634949 480.122009,985.448425 480.875092,984.286499 
	C481.465515,983.375427 482.629211,982.598145 481.558075,980.836914 
	C478.400208,983.291870 474.985291,984.797302 470.776276,984.134766 
	C467.889709,983.680298 466.636444,982.452881 466.682312,979.618225 
	C466.733551,976.452942 466.622711,973.284058 466.716339,970.120728 
	C466.777466,968.054993 465.923828,965.400696 468.527863,964.393982 
	C471.038849,963.423218 471.481842,966.604370 473.527100,967.572754 
z"/>
</svg>